<svg id="Слой_1" data-name="Слой 1" xmlns="http://www.w3.org/2000/svg" viewBox="0 0 220 231.5"><defs><style>.cls-1{fill:#69adfe;}.cls-2{fill:#fff;}.cls-3{fill:#8dd1fe;}.cls-4{fill:#5dbb63;}</style></defs><title>document</title><path class="cls-1" d="M0,20Q0,0,20,0H90q10,0,20,10l20,20h70q20,0,20,20v80q0,20-20,20H20Q0,150,0,130Z"/><rect class="cls-2" x="12.88" y="41.75" width="194.25" height="148.4" rx="9.81"/><path class="cls-3" d="M220,72.5q0-20-20-20H130q-10,0-20,10l-20,20H20q-20,0-20,20v80q0,20,20,20H200q20,0,20-20Z"/><circle class="cls-4" cx="110" cy="171.5" r="60"/><path class="cls-2" d="M85,161.5h50a8,8,0,0,1,8,8h0a8,8,0,0,1-8,8H85a8,8,0,0,1-8-8h0A8,8,0,0,1,85,161.5Z"/><path class="cls-2" d="M110,136.5h0a8,8,0,0,1,8,8v54a8,8,0,0,1-8,8h0a8,8,0,0,1-8-8v-54A8,8,0,0,1,110,136.5Z"/></svg>